<?xml version="1.0" encoding="UTF-8"?>
<svg width="17px" height="17px" viewBox="0 0 17 17" version="1.1" xmlns="http://www.w3.org/2000/svg" xmlns:xlink="http://www.w3.org/1999/xlink">
    <!-- Generator: Sketch 50.2 (55047) - http://www.bohemiancoding.com/sketch -->
    <title>Artboard</title>
    <desc>Created with Sketch.</desc>
    <defs></defs>
    <g id="Page-1" stroke="none" stroke-width="1" fill="none" fill-rule="evenodd">
        <g id="Artboard" transform="translate(-44.000000, -51.000000)" fill="#999999" fill-rule="nonzero">
            <path d="M48,59 L57,59 L57,60 L48,60 L48,59 Z M58.2625,52 L46.7375,52 C45.7779052,52 45,52.7779052 45,53.7375 L45,65.275 C45.0068686,66.2297096 45.7827657,67.0000247 46.7375,67 L58.275,67 C59.2297096,66.9931314 60.0000247,66.2172343 60,65.2625 L60,53.7375 C60,52.7779052 59.2220948,52 58.2625,52 Z M58.9871921,65.4102564 C58.9871921,65.5666661 58.9251198,65.7166697 58.8146304,65.8272681 C58.704141,65.9378665 58.5542852,66 58.3980296,66 L46.5891626,66 C46.4329069,66 46.2830511,65.9378665 46.1725617,65.8272681 C46.0620723,65.7166697 46,65.5666661 46,65.4102564 L46,53.5897436 C46,53.2640372 46.2637771,53 46.5891626,53 L58.4108374,53 C58.7362229,53 59,53.2640372 59,53.5897436 L58.9871921,65.4102564 Z" id="Shape-Copy-23"></path>
        </g>
    </g>
</svg>