<?xml version="1.0" encoding="UTF-8"?>
<svg width="16px" height="16px" viewBox="0 0 16 16" version="1.1" xmlns="http://www.w3.org/2000/svg" xmlns:xlink="http://www.w3.org/1999/xlink">
    <!-- Generator: Sketch 50.2 (55047) - http://www.bohemiancoding.com/sketch -->
    <title>删除16-16</title>
    <desc>Created with Sketch.</desc>
    <defs></defs>
    <g id="Page-1" stroke="none" stroke-width="1" fill="none" fill-rule="evenodd">
        <g id="Artboard" transform="translate(-90.000000, -77.000000)" fill="#0B74B9" fill-rule="nonzero">
            <path d="M100.166667,89.4805561 C100.166667,89.7781536 99.9431667,90.0187072 99.6666667,90.0187072 C99.3901667,90.0187072 99.1666667,89.7781536 99.1666667,89.4805561 L99.1666667,83.5608944 C99.1666667,83.2632968 99.3901667,83.0227433 99.6666667,83.0227433 C99.9431667,83.0227433 100.166667,83.2632968 100.166667,83.5608944 L100.166667,89.4805561 Z M96.6666667,89.4805561 C96.6666667,89.7781536 96.4431667,90.0187072 96.1666667,90.0187072 C95.8901667,90.0187072 95.6666667,89.7781536 95.6666667,89.4805561 L95.6666667,83.5608944 C95.6666667,83.2632968 95.8901667,83.0227433 96.1666667,83.0227433 C96.4431667,83.0227433 96.6666667,83.2632968 96.6666667,83.5608944 L96.6666667,89.4805561 Z M102.834333,81.7891217 C103.110833,81.7891217 103.334333,82.0302133 103.334333,82.3272727 L103.334333,90.3855468 C103.334333,91.2756487 102.661333,92 101.834333,92 L94.8333333,92 C94.0063333,92 93.3333333,91.2756487 93.3333333,90.3855468 L93.3333333,82.3052085 C93.3333333,82.0081491 93.5573333,81.7670575 93.8333333,81.7670575 C94.1093333,81.7670575 94.3333333,82.0081491 94.3333333,82.3052085 L94.3333333,90.3855468 C94.3333333,90.6826062 94.5578333,90.9236979 94.8333333,90.9236979 L101.834333,90.9236979 C102.110333,90.9236979 102.334333,90.6826062 102.334333,90.3855468 L102.334333,82.3272727 C102.334333,82.0302133 102.557833,81.7891217 102.834333,81.7891217 Z M104.5,80.6907553 L102,80.6907553 L102,79.6144532 C102,78.7243513 101.3325,78 100.5115,78 L95.5,78 C94.673,78 94,78.7243513 94,79.6144532 L94,80.6907553 L91.5,80.6907553 C91.2235,80.6907553 91,80.9313089 91,81.2289064 C91,81.5265039 91.2235,81.7670575 91.5,81.7670575 L104.5,81.7670575 C104.7765,81.7670575 105,81.5265039 105,81.2289064 C105,80.9313089 104.7765,80.6907553 104.5,80.6907553 Z M95,79.6144532 C95,79.317932 95.2245,79.0763021 95.5,79.0763021 L100.5115,79.0763021 C100.7855,79.0763021 101,79.3125505 101,79.6144532 L101,80.6907553 L95,80.6907553 L95,79.6144532 Z" id="Shape-Copy-4"></path>
        </g>
    </g>
</svg>