<?xml version="1.0" encoding="UTF-8"?>
<svg width="17px" height="17px" viewBox="0 0 17 17" version="1.1" xmlns="http://www.w3.org/2000/svg" xmlns:xlink="http://www.w3.org/1999/xlink">
    <!-- Generator: Sketch 50.2 (55047) - http://www.bohemiancoding.com/sketch -->
    <title>Artboard</title>
    <desc>Created with Sketch.</desc>
    <defs></defs>
    <g id="Page-1" stroke="none" stroke-width="1" fill="none" fill-rule="evenodd">
        <g id="Artboard" transform="translate(-75.000000, -97.000000)" fill="#999999" fill-rule="nonzero">
            <path d="M83,105 L83,101 L84,101 L84,105 L88,105 L88,106 L84,106 L84,110 L83,110 L83,106 L79,106 L79,105 L83,105 Z M89.2625,98 L77.7375,98 C76.7779052,98 76,98.7779052 76,99.7375 L76,111.275 C76.0068686,112.22971 76.7827657,113.000025 77.7375,113 L89.275,113 C90.2297096,112.993131 91.0000247,112.217234 91,111.2625 L91,99.7375 C91,98.7779052 90.2220948,98 89.2625,98 Z M89.9871921,111.410256 C89.9871921,111.566666 89.9251198,111.71667 89.8146304,111.827268 C89.704141,111.937866 89.5542852,112 89.3980296,112 L77.5891626,112 C77.4329069,112 77.2830511,111.937866 77.1725617,111.827268 C77.0620723,111.71667 77,111.566666 77,111.410256 L77,99.5897436 C77,99.2640372 77.2637771,99 77.5891626,99 L89.4108374,99 C89.7362229,99 90,99.2640372 90,99.5897436 L89.9871921,111.410256 Z" id="Shape-Copy-22"></path>
        </g>
    </g>
</svg>