<?xml version="1.0" encoding="UTF-8"?>
<svg width="41px" height="37px" viewBox="0 0 41 37" version="1.1" xmlns="http://www.w3.org/2000/svg" xmlns:xlink="http://www.w3.org/1999/xlink">
    <!-- Generator: Sketch 50.2 (55047) - http://www.bohemiancoding.com/sketch -->
    <title>折加号</title>
    <desc>Created with Sketch.</desc>
    <defs></defs>
    <g id="Page-1" stroke="none" stroke-width="1" fill="none" fill-rule="evenodd">
        <g id="Artboard" transform="translate(-92.000000, -130.000000)" fill-rule="nonzero">
            <path d="M124,158 L124,154 L125,154 L125,158 L129,158 L129,159 L125,159 L125,163 L124,163 L124,159 L120,159 L120,158 L124,158 Z M130.2625,151 L118.7375,151 C117.777905,151 117,151.777905 117,152.7375 L117,164.275 C117.006869,165.22971 117.782766,166.000025 118.7375,166 L130.275,166 C131.22971,165.993131 132.000025,165.217234 132,164.2625 L132,152.7375 C132,151.777905 131.222095,151 130.2625,151 Z M130.987192,164.410256 C130.987192,164.566666 130.92512,164.71667 130.81463,164.827268 C130.704141,164.937866 130.554285,165 130.39803,165 L118.589163,165 C118.432907,165 118.283051,164.937866 118.172562,164.827268 C118.062072,164.71667 118,164.566666 118,164.410256 L118,152.589744 C118,152.264037 118.263777,152 118.589163,152 L130.410837,152 C130.736223,152 131,152.264037 131,152.589744 L130.987192,164.410256 Z" id="Shape-Copy-22" fill="#999999"></path>
            <polygon id="Line-Copy-23" fill="#DDDDDD" points="93 130 94 130 94 159 93 159"></polygon>
            <polygon id="Line-Copy-24" fill="#DDDDDD" transform="translate(105.000000, 158.500000) rotate(-90.000000) translate(-105.000000, -158.500000) " points="104.5 146.5 105.5 146.5 105.5 170.5 104.5 170.5"></polygon>
        </g>
    </g>
</svg>