<?xml version="1.0" encoding="UTF-8"?>
<svg width="16px" height="16px" viewBox="0 0 16 16" version="1.1" xmlns="http://www.w3.org/2000/svg" xmlns:xlink="http://www.w3.org/1999/xlink">
    <!-- Generator: Sketch 50.2 (55047) - http://www.bohemiancoding.com/sketch -->
    <title>添加16-16</title>
    <desc>Created with Sketch.</desc>
    <defs></defs>
    <g id="Page-1" stroke="none" stroke-width="1" fill="none" fill-rule="evenodd">
        <g id="Artboard" transform="translate(-119.000000, -81.000000)" fill="#666666" fill-rule="nonzero">
            <path d="M129.8,88.5333333 L127.466667,88.5333333 L127.466667,86.2 C127.466667,85.92 127.28,85.7333333 127,85.7333333 C126.72,85.7333333 126.533333,85.92 126.533333,86.2 L126.533333,88.5333333 L124.2,88.5333333 C123.92,88.5333333 123.733333,88.72 123.733333,89 C123.733333,89.28 123.92,89.4666667 124.2,89.4666667 L126.533333,89.4666667 L126.533333,91.8 C126.533333,92.08 126.72,92.2666667 127,92.2666667 C127.28,92.2666667 127.466667,92.08 127.466667,91.8 L127.466667,89.4666667 L129.8,89.4666667 C130.08,89.4666667 130.266667,89.28 130.266667,89 C130.266667,88.7666667 130.08,88.5333333 129.8,88.5333333 Z M127,82 C123.15,82 120,85.15 120,89 C120,92.85 123.15,96 127,96 C130.85,96 134,92.85 134,89 C134,85.15 130.85,82 127,82 Z M127,95.0666667 C123.663333,95.0666667 120.933333,92.3366667 120.933333,89 C120.933333,85.6633333 123.663333,82.9333333 127,82.9333333 C130.336667,82.9333333 133.066667,85.6633333 133.066667,89 C133.066667,92.3366667 130.336667,95.0666667 127,95.0666667 Z" id="Shape"></path>
        </g>
    </g>
</svg>