<?xml version="1.0" encoding="UTF-8"?>
<svg width="14px" height="14px" viewBox="0 0 14 14" version="1.1" xmlns="http://www.w3.org/2000/svg" xmlns:xlink="http://www.w3.org/1999/xlink">
    <!-- Generator: Sketch 50.2 (55047) - http://www.bohemiancoding.com/sketch -->
    <title>添加</title>
    <desc>Created with Sketch.</desc>
    <defs></defs>
    <g id="Page-1" stroke="none" stroke-width="1" fill="none" fill-rule="evenodd">
        <g id="Artboard" transform="translate(-14.000000, -77.000000)" fill="#FFFFFF" fill-rule="nonzero">
            <path d="M26.1280007,83.1280204 L21.8719855,83.1280204 L21.8719855,78.8719865 C21.8719855,78.3904009 21.4815713,78 21.0000275,78 C20.5184287,78 20.1280283,78.3904009 20.1280283,78.8719865 L20.1280283,83.1280204 L15.8719855,83.1280204 C15.3904004,83.1280204 15,83.5184487 15,84.0000069 C15,84.481565 15.3904004,84.8719796 15.8719855,84.8719796 L20.1280283,84.8719796 L20.1280283,89.1280135 C20.1280283,89.6095716 20.5184287,90 21.0000275,90 C21.4815713,90 21.8719855,89.6095716 21.8719855,89.1280135 L21.8719855,84.8719659 L26.1280007,84.8719659 C26.6095858,84.8719659 27,84.481565 27,83.9999931 C27,83.5184212 26.6095858,83.1280204 26.1280007,83.1280204 Z" id="新建-copy-2"></path>
        </g>
    </g>
</svg>