<?xml version="1.0" encoding="UTF-8"?>
<svg width="18px" height="18px" viewBox="0 0 18 18" version="1.1" xmlns="http://www.w3.org/2000/svg" xmlns:xlink="http://www.w3.org/1999/xlink">
    <!-- Generator: Sketch 50.2 (55047) - http://www.bohemiancoding.com/sketch -->
    <title>即时用车订单</title>
    <desc>Created with Sketch.</desc>
    <defs></defs>
    <g id="Page-1" stroke="none" stroke-width="1" fill="none" fill-rule="evenodd">
        <g id="即时用车订单" transform="translate(-219.000000, -21.000000)" fill="#666666" fill-rule="nonzero">
            <path d="M225.737947,25.4448232 L235.26226,25.4448232 C235.6697,25.4448232 236,25.121386 236,24.7224116 C236,24.3234372 235.6697,24 235.26226,24 L225.737947,24 C225.330507,24 225.000207,24.3234372 225.000207,24.7224116 C225.000207,25.121386 225.330507,25.4448232 225.737947,25.4448232 Z M225.73774,31.2064395 L235.227102,31.2064395 C235.634542,31.2064395 235.964842,30.8830023 235.964842,30.4840279 C235.964842,30.0850535 235.634542,29.7616163 235.227102,29.7616163 L225.73774,29.7616163 C225.3303,29.7616163 225,30.0850535 225,30.4840279 C225,30.8830023 225.3303,31.2064395 225.73774,31.2064395 Z M235.26226,35.5551768 C235.6697,35.5551768 236,35.878614 236,36.2775884 C236,36.6765628 235.6697,37 235.26226,37 L225.737947,37 C225.330507,37 225.000207,36.6765628 225.000207,36.2775884 C225.000207,35.878614 225.330507,35.5551768 225.737947,35.5551768 L235.26226,35.5551768 Z M220,24.5 C220,23.6715729 220.671573,23 221.5,23 C222.328427,23 223,23.6715729 223,24.5 C223,25.3284271 222.328427,26 221.5,26 C220.671573,26 220,25.3284271 220,24.5 Z M220,30.5 C220,29.6715729 220.671573,29 221.5,29 C222.328427,29 223,29.6715729 223,30.5 C223,31.3284271 222.328427,32 221.5,32 C220.671573,32 220,31.3284271 220,30.5 Z M220,36.5 C220,35.6715729 220.671573,35 221.5,35 C222.328427,35 223,35.6715729 223,36.5 C223,37.3284271 222.328427,38 221.5,38 C220.671573,38 220,37.3284271 220,36.5 Z" id="Shape"></path>
        </g>
    </g>
</svg>