<?xml version="1.0" encoding="UTF-8"?>
<svg width="14px" height="14px" viewBox="0 0 14 14" version="1.1" xmlns="http://www.w3.org/2000/svg" xmlns:xlink="http://www.w3.org/1999/xlink">
    <!-- Generator: Sketch 50.2 (55047) - http://www.bohemiancoding.com/sketch -->
    <title>Artboard</title>
    <desc>Created with Sketch.</desc>
    <defs></defs>
    <g id="Page-1" stroke="none" stroke-width="1" fill="none" fill-rule="evenodd">
        <g id="Artboard" transform="translate(-14.000000, -20.000000)" fill="#0B74B9" fill-rule="nonzero" stroke="#0B74B9" stroke-width="0.2">
            <path d="M22.0618421,27 L25.7817956,30.7199533 C26.0729802,31.0111376 26.0715101,31.4850705 25.7782907,31.7782901 C25.4830267,32.0735546 25.0112375,32.0730795 24.7199537,31.7817956 L21.0000002,28.0618423 L17.2800467,31.7817956 C16.988862,32.0729799 16.5149292,32.0715104 16.2217097,31.7782901 C15.9264457,31.4830263 15.9269203,31.0112372 16.2182041,30.7199533 L19.9381575,27 L16.2182041,23.2800467 C15.9270194,22.9888624 15.9284895,22.5149295 16.2217097,22.2217099 C16.5169737,21.9264454 16.9887629,21.9269205 17.2800467,22.2182044 L21.0000002,25.9381577 L24.7199537,22.2182044 C25.0111376,21.9270201 25.4850705,21.9284896 25.7782907,22.2217099 C26.0735546,22.5169737 26.0730794,22.9887628 25.7817956,23.2800467 L22.0618421,27 Z" id="删除-copy"></path>
        </g>
    </g>
</svg>