<?xml version="1.0" encoding="UTF-8"?>
<svg width="16px" height="16px" viewBox="0 0 16 16" version="1.1" xmlns="http://www.w3.org/2000/svg" xmlns:xlink="http://www.w3.org/1999/xlink">
    <!-- Generator: Sketch 50.2 (55047) - http://www.bohemiancoding.com/sketch -->
    <title>编辑（正常）</title>
    <desc>Created with Sketch.</desc>
    <defs></defs>
    <g id="Page-1" stroke="none" stroke-width="1" fill="none" fill-rule="evenodd">
        <g id="切片" transform="translate(-10.000000, -16.000000)" fill="#666666" fill-rule="nonzero">
            <path d="M22.8478586,22.9872727 C22.5923756,22.9687883 22.377622,23.1785065 22.377622,23.4346588 L22.377622,29.0150492 C22.377622,29.6256716 21.8780176,30.1252761 21.2673952,30.1252761 L13.1709282,30.1252761 C12.5722092,30.1252761 11.8753157,29.6158398 11.8753157,29.0161966 L11.8753157,20.8588267 C11.8753157,20.2592153 12.5722092,19.6202608 13.1709282,19.6202608 L17.8318476,19.6202608 C18.087984,19.6202608 18.29775,19.4058578 18.2799986,19.1503429 C18.2636495,18.9149697 18.0669341,18.7440528 17.8260474,18.7440528 L13.1709282,18.7440528 C11.9743825,18.7440528 11,19.659572 11,20.8588267 L11,29.0161966 C11,30.2154831 11.9743825,31.0006874 13.1709282,31.0006874 L21.3140364,31.0006874 C22.5115064,31.0006874 23.2520772,30.2154831 23.2520772,29.0161966 L23.2520772,23.4420366 C23.2520772,23.2015483 23.0825307,23.0042433 22.8478586,22.9872727 Z M24.6058024,18.0491088 L23.940189,17.3807387 C23.4324259,16.8730871 22.5410319,16.8730871 22.0333485,17.3807387 L20.7743064,18.8619759 L14.0606792,25.2900352 L14.0606792,25.4471525 L14.0553251,25.4747835 L13.2112098,28.3372352 L13.8313612,28.8913527 L16.5403765,27.9356936 L16.5742858,27.9428802 L16.7072459,27.9428802 L23.1273219,21.2203295 L24.6058183,20.0112431 C25.1313965,19.485633 25.1313965,18.5755953 24.6058024,18.0491088 Z M14.4042021,27.7091005 L14.7986208,26.451843 L15.5865021,27.241525 L14.4042021,27.7091005 Z M16.3877846,26.7712725 L15.2277774,25.6104048 L21.2293571,19.6382886 L22.3518697,20.7625699 L16.3877846,26.7712725 Z M23.9713575,19.3214884 L23.0772865,20.2164517 L21.7745351,18.9119794 L22.668638,18.0169842 C22.7533794,17.9330715 22.8658155,17.8866693 22.987191,17.8866693 C23.1076264,17.8866693 23.2200784,17.9330874 23.3039115,18.0169842 L23.970497,18.6843664 C24.1462899,18.8601912 24.1462899,19.1457114 23.9713575,19.3214884 Z" id="Shape-Copy-2"></path>
        </g>
    </g>
</svg>