<?xml version="1.0" encoding="UTF-8"?>
<svg width="18px" height="18px" viewBox="0 0 18 18" version="1.1" xmlns="http://www.w3.org/2000/svg" xmlns:xlink="http://www.w3.org/1999/xlink">
    <!-- Generator: Sketch 50.2 (55047) - http://www.bohemiancoding.com/sketch -->
    <title>叹号</title>
    <desc>Created with Sketch.</desc>
    <defs></defs>
    <g id="Page-1" stroke="none" stroke-width="1" fill="none" fill-rule="evenodd">
        <g id="Artboard" transform="translate(-83.000000, -76.000000)" fill="#FF4100" fill-rule="nonzero">
            <path d="M92,79.5742031 C92.5589531,79.5742031 93.0121562,80.0274063 93.0121562,80.5863438 C93.0121562,81.1453125 92.998,87.2910313 92,87.2910313 C91.0020156,87.2910313 90.9878594,81.1453125 90.9878594,80.5863438 C90.9878594,80.0274063 91.4410625,79.5742031 92,79.5742031 Z M92,88.4793125 C92.5589531,88.4793125 93.0121562,88.9325 93.0121562,89.4914531 C93.0121562,90.050375 92.5589531,90.5035938 92,90.5035938 C91.4410625,90.5035938 90.9878594,90.050375 90.9878594,89.4914531 C90.9878594,88.9325 91.4410625,88.4793125 92,88.4793125 Z M91.9999062,77 C87.5816719,77 84,80.5816875 84,84.9999062 C84,89.418125 87.5816719,92.9998125 91.9999062,92.9998125 C96.418125,92.9998125 99.9998125,89.4181094 99.9998125,84.9999062 C99.9998125,80.5816875 96.418125,77 91.9999062,77 Z M96.9937656,89.9937656 C96.344875,90.6426719 95.5894844,91.1520312 94.748625,91.5077031 C93.8785312,91.8757188 92.9537344,92.0623125 91.9999062,92.0623125 C91.0460781,92.0623125 90.1212812,91.8757188 89.2511875,91.5077031 C88.4103125,91.1520312 87.6549375,90.6426875 87.0060313,89.9937656 C86.357125,89.344875 85.8477812,88.5894844 85.4921094,87.748625 C85.1241094,86.8785312 84.9375,85.9537344 84.9375,84.9999062 C84.9375,84.0460781 85.1240938,83.1212812 85.4921094,82.2511875 C85.8477656,81.4103125 86.357125,80.6549375 87.0060313,80.0060313 C87.6549375,79.357125 88.4103125,78.8477812 89.2511875,78.4921094 C90.1212656,78.1241094 91.0460781,77.9375 91.9999062,77.9375 C92.9537344,77.9375 93.8785312,78.1240938 94.748625,78.4921094 C95.5894844,78.8477656 96.344875,79.357125 96.9937656,80.0060313 C97.6426719,80.6549375 98.1520312,81.4103281 98.5077031,82.2511875 C98.8757188,83.1212812 99.0623125,84.0460781 99.0623125,84.9999062 C99.0623125,85.9537344 98.8757188,86.8785312 98.5077031,87.748625 C98.1520312,88.5894844 97.6426875,89.344875 96.9937656,89.9937656 Z M92,93 C96.418278,93 100,89.418278 100,85 C100,80.581722 96.418278,77 92,77 C87.581722,77 84,80.581722 84,85 C84,89.418278 87.581722,93 92,93 Z" id="Shape-Copy-2"></path>
        </g>
    </g>
</svg>