<?xml version="1.0" encoding="UTF-8"?>
<svg width="14px" height="16px" viewBox="0 0 14 16" version="1.1" xmlns="http://www.w3.org/2000/svg" xmlns:xlink="http://www.w3.org/1999/xlink">
    <!-- Generator: Sketch 50.2 (55047) - http://www.bohemiancoding.com/sketch -->
    <title>Artboard</title>
    <desc>Created with Sketch.</desc>
    <defs></defs>
    <g id="Page-1" stroke="none" stroke-width="1" fill="none" fill-rule="evenodd">
        <g id="Artboard" transform="translate(-13.000000, -7.000000)" fill="#0B74B9">
            <path d="M24.3438914,21 L15.6561086,21 C14.7330317,21 14,20.2717842 14,19.3547718 L14,9.64522822 C14,8.72821577 14.7330317,8 15.6561086,8 L24.3438914,8 C25.2669683,8 26,8.72821577 26,9.64522822 L26,19.3547718 C26,20.2717842 25.2669683,21 24.3438914,21 Z M15.6561086,8.59336099 C15.0588235,8.59336099 14.5972851,9.07883817 14.5972851,9.64522822 L14.5972851,19.3547718 C14.5972851,19.9211618 15.0588235,20.406639 15.6561086,20.406639 L24.3438914,20.406639 C24.9411765,20.406639 25.4027149,19.9211618 25.4027149,19.3547718 L25.4027149,9.64522822 C25.4027149,9.05186722 24.9140271,8.59336099 24.3438914,8.59336099 L15.6561086,8.59336099 Z M23.2162519,17.9206949 L16.8032964,17.9206949 C16.4826487,17.9206949 16.2203005,17.6705491 16.2203005,17.3648154 C16.2203005,17.0590817 16.4826487,16.8089359 16.8032964,16.8089359 L23.2162519,16.8089359 C23.5368997,16.8089359 23.7992479,17.0590817 23.7992478,17.3648154 C23.7992478,17.6705492 23.5368997,17.9206949 23.2162519,17.9206949 Z M23.2162519,12.41511 L16.8032964,12.41511 C16.4826487,12.41511 16.2203005,12.1649642 16.2203005,11.8592305 C16.2203005,11.5534968 16.4826487,11.303351 16.8032964,11.303351 L23.2162519,11.303351 C23.5368997,11.303351 23.7992479,11.5534967 23.7992478,11.8592305 C23.7992478,12.1649642 23.5368997,12.41511 23.2162519,12.41511 Z M23.2162519,15.1691658 L16.8032964,15.1691658 C16.4826487,15.1691658 16.2203005,14.9184515 16.2203005,14.6120229 C16.2203005,14.3055944 16.4826487,14.0548801 16.8032964,14.0548801 L23.2162519,14.0548801 C23.5368997,14.0548801 23.7992478,14.3055944 23.7992478,14.6120229 C23.7992478,14.9184515 23.5368997,15.1691658 23.2162519,15.1691658 Z" id="Combined-Shape-Copy"></path>
        </g>
    </g>
</svg>