<?xml version="1.0" encoding="UTF-8"?>
<svg width="20px" height="22px" viewBox="0 0 20 22" version="1.1" xmlns="http://www.w3.org/2000/svg" xmlns:xlink="http://www.w3.org/1999/xlink">
    <!-- Generator: Sketch 50.2 (55047) - http://www.bohemiancoding.com/sketch -->
    <title>左箭头</title>
    <desc>Created with Sketch.</desc>
    <defs></defs>
    <g id="Page-1" stroke="none" stroke-width="1" fill="none" fill-rule="evenodd">
        <g id="操作日志" transform="translate(-219.000000, -77.000000)" fill="#666666" fill-rule="nonzero">
            <path d="M237.928854,87.6411972 L229.486166,78.1619153 C229.296443,77.9664662 229.106719,77.9664662 228.916996,78.0641908 C228.727273,78.1619153 228.537549,78.3573645 228.537549,78.5528136 L228.537549,86.6639516 L220.948617,78.2596399 C220.758893,78.0641908 220.56917,77.9664662 220.379447,78.0641908 C220.094862,78.1619153 220,78.3573645 220,78.5528136 L220,97.5113772 C220,97.7068263 220.094862,97.9022754 220.379447,98 C220.474308,98 220.474308,98 220.56917,98 C220.758893,98 220.853755,97.9022754 220.948617,97.8045509 L228.537549,89.4002392 L228.537549,97.5113772 C228.537549,97.7068263 228.632411,97.9022754 228.916996,98 C229.011858,98 229.011858,98 229.106719,98 C229.296443,98 229.391304,97.9022754 229.486166,97.8045509 L237.928854,88.3252691 C238.023715,88.2275445 238.023715,87.8366463 237.928854,87.6411972 Z M221.043478,96.1432335 L221.043478,79.9209573 L228.252964,88.0320954 L221.043478,96.1432335 Z M229.581028,96.1432335 L229.581028,88.0320954 C229.581028,88.0320954 229.581028,88.0320954 229.581028,88.0320954 L229.581028,79.9209573 L236.790514,88.0320954 L229.581028,96.1432335 Z" id="Shape" transform="translate(229.000000, 88.000000) rotate(-180.000000) translate(-229.000000, -88.000000) "></path>
        </g>
    </g>
</svg>