<?xml version="1.0" encoding="UTF-8"?>
<svg width="20px" height="22px" viewBox="0 0 20 22" version="1.1" xmlns="http://www.w3.org/2000/svg" xmlns:xlink="http://www.w3.org/1999/xlink">
    <!-- Generator: Sketch 50.2 (55047) - http://www.bohemiancoding.com/sketch -->
    <title>Artboard</title>
    <desc>Created with Sketch.</desc>
    <defs></defs>
    <g id="Page-1" stroke="none" stroke-width="1" fill="none" fill-rule="evenodd">
        <g id="Artboard" transform="translate(-43.000000, -58.000000)" fill="#CCCCCC" fill-rule="nonzero">
            <path d="M61.9288538,68.6411972 L53.486166,59.1619153 C53.2964427,58.9664662 53.1067194,58.9664662 52.916996,59.0641908 C52.7272727,59.1619153 52.5375494,59.3573645 52.5375494,59.5528136 L52.5375494,67.6639516 L44.9486166,59.2596399 C44.7588933,59.0641908 44.56917,58.9664662 44.3794466,59.0641908 C44.0948617,59.1619153 44,59.3573645 44,59.5528136 L44,78.5113772 C44,78.7068263 44.0948617,78.9022754 44.3794466,79 C44.4743083,79 44.4743083,79 44.56917,79 C44.7588933,79 44.8537549,78.9022754 44.9486166,78.8045509 L52.5375494,70.4002392 L52.5375494,78.5113772 C52.5375494,78.7068263 52.6324111,78.9022754 52.916996,79 C53.0118577,79 53.0118577,79 53.1067194,79 C53.2964427,79 53.3913043,78.9022754 53.486166,78.8045509 L61.9288538,69.3252691 C62.0237154,69.2275445 62.0237154,68.8366463 61.9288538,68.6411972 Z M45.0434783,77.1432335 L45.0434783,60.9209573 L52.2529644,69.0320954 L45.0434783,77.1432335 Z M53.5810277,77.1432335 L53.5810277,69.0320954 C53.5810277,69.0320954 53.5810277,69.0320954 53.5810277,69.0320954 L53.5810277,60.9209573 L60.7905138,69.0320954 L53.5810277,77.1432335 Z" id="Shape-Copy-5" transform="translate(53.000000, 69.000000) scale(-1, 1) rotate(-360.000000) translate(-53.000000, -69.000000) "></path>
        </g>
    </g>
</svg>