<?xml version="1.0" encoding="UTF-8"?>
<svg width="20px" height="22px" viewBox="0 0 20 22" version="1.1" xmlns="http://www.w3.org/2000/svg" xmlns:xlink="http://www.w3.org/1999/xlink">
    <!-- Generator: Sketch 50.2 (55047) - http://www.bohemiancoding.com/sketch -->
    <title>Artboard</title>
    <desc>Created with Sketch.</desc>
    <defs></defs>
    <g id="Page-1" stroke="none" stroke-width="1" fill="none" fill-rule="evenodd">
        <g id="Artboard" transform="translate(-16.000000, -51.000000)" fill="#CCCCCC" fill-rule="nonzero">
            <path d="M34.9288538,61.6411972 L26.486166,52.1619153 C26.2964427,51.9664662 26.1067194,51.9664662 25.916996,52.0641908 C25.7272727,52.1619153 25.5375494,52.3573645 25.5375494,52.5528136 L25.5375494,60.6639516 L17.9486166,52.2596399 C17.7588933,52.0641908 17.56917,51.9664662 17.3794466,52.0641908 C17.0948617,52.1619153 17,52.3573645 17,52.5528136 L17,71.5113772 C17,71.7068263 17.0948617,71.9022754 17.3794466,72 C17.4743083,72 17.4743083,72 17.56917,72 C17.7588933,72 17.8537549,71.9022754 17.9486166,71.8045509 L25.5375494,63.4002392 L25.5375494,71.5113772 C25.5375494,71.7068263 25.6324111,71.9022754 25.916996,72 C26.0118577,72 26.0118577,72 26.1067194,72 C26.2964427,72 26.3913043,71.9022754 26.486166,71.8045509 L34.9288538,62.3252691 C35.0237154,62.2275445 35.0237154,61.8366463 34.9288538,61.6411972 Z M18.0434783,70.1432335 L18.0434783,53.9209573 L25.2529644,62.0320954 L18.0434783,70.1432335 Z M26.5810277,70.1432335 L26.5810277,62.0320954 C26.5810277,62.0320954 26.5810277,62.0320954 26.5810277,62.0320954 L26.5810277,53.9209573 L33.7905138,62.0320954 L26.5810277,70.1432335 Z" id="Shape-Copy-4" transform="translate(26.000000, 62.000000) rotate(-360.000000) translate(-26.000000, -62.000000) "></path>
        </g>
    </g>
</svg>