<?xml version="1.0" encoding="UTF-8"?>
<svg width="14px" height="14px" viewBox="0 0 14 14" version="1.1" xmlns="http://www.w3.org/2000/svg" xmlns:xlink="http://www.w3.org/1999/xlink">
    <!-- Generator: Sketch 50.2 (55047) - http://www.bohemiancoding.com/sketch -->
    <title>导出4</title>
    <desc>Created with Sketch.</desc>
    <defs></defs>
    <g id="Page-1" stroke="none" stroke-width="1" fill="none" fill-rule="evenodd">
        <g id="Artboard" transform="translate(-12.000000, -13.000000)" fill="#FFFFFF" fill-rule="nonzero">
            <path d="M23.9311828,18.6268817 C23.966129,18.6548387 23.9870968,18.6897849 23.9870968,18.7247312 C23.9870968,18.8016129 23.9032258,18.8645161 23.7913978,18.8854839 L23.7913978,18.8924731 L21.5268817,18.8924731 C21.3102151,19.0392473 21.1774194,19.2768817 21.1215054,19.3956989 L21.1215054,21.2408602 C21.1215054,21.5623656 20.8629032,21.8139785 20.5483871,21.8139785 L18.3677419,21.8139785 C18.0532258,21.8139785 17.7946237,21.5553763 17.7946237,21.2408602 L17.7946237,19.4725806 C17.7247312,19.1650538 17.5150538,18.9903226 17.3543011,18.8994624 L15.2155914,18.8994624 C15.061828,18.8994624 14.9360215,18.8225806 14.9360215,18.7317204 C14.9360215,18.6897849 14.9569892,18.6548387 14.9919355,18.6268817 L19.2413978,14.083871 C19.3532258,13.972043 19.5349462,13.972043 19.6467742,14.083871 L23.9311828,18.6268817 Z M17.7946237,22.4080645 L21.1215054,22.4080645 L21.1215054,22.6526882 C21.1215054,22.9672043 20.8629032,23.2258065 20.5483871,23.2258065 L18.3677419,23.2258065 C18.0532258,23.2258065 17.7946237,22.9672043 17.7946237,22.6526882 L17.7946237,22.4080645 Z M25.9370968,22.394086 L25.9370968,23.6521505 C25.9370968,24.6306452 25.1403226,25.4274194 24.161828,25.4274194 L14.7752688,25.4274194 C13.7967742,25.4274194 13,24.6306452 13,23.6521505 L13,22.4080645 C13.0069892,22.0446237 13.3145161,21.7650538 13.6919355,21.7650538 C13.9295699,21.7650538 14.1462366,21.8768817 14.272043,22.0586022 L14.3768817,22.0586022 L14.3768817,23.8129032 C14.3768817,24.0155914 14.5376344,24.1763441 14.7403226,24.1763441 L24.1758065,24.1763441 C24.3784946,24.1763441 24.5392473,24.0155914 24.5392473,23.8129032 L24.5392473,22.0586022 L24.6580645,22.0586022 C24.7908602,21.8768817 25.0075269,21.7650538 25.238172,21.7650538 C25.6016129,21.7650538 25.9091398,22.0306452 25.9370968,22.3801075 L25.9370968,22.394086 Z" id="Combined-Shape"></path>
        </g>
    </g>
</svg>