<?xml version="1.0" encoding="UTF-8"?>
<svg width="14px" height="14px" viewBox="0 0 14 14" version="1.1" xmlns="http://www.w3.org/2000/svg" xmlns:xlink="http://www.w3.org/1999/xlink">
    <!-- Generator: Sketch 50.2 (55047) - http://www.bohemiancoding.com/sketch -->
    <title>Artboard</title>
    <desc>Created with Sketch.</desc>
    <defs></defs>
    <g id="Page-1" stroke="none" stroke-width="1" fill="none" fill-rule="evenodd">
        <g id="Artboard" transform="translate(-15.000000, -18.000000)" fill="#FFFFFF" fill-rule="nonzero">
            <path d="M26.9428571,23.7370304 C26.9785714,23.765653 27,23.8014311 27,23.8372093 C27,23.9159213 26.9142857,23.980322 26.8,24.0017889 L26.8,24.0089445 L24.4857143,24.0089445 C24.2642857,24.1592129 24.1285714,24.4025045 24.0714286,24.5241503 L24.0714286,26.4132379 C24.0714286,26.7423971 23.8071429,27 23.4857143,27 L21.2571429,27 C20.9357143,27 20.6714286,26.7352415 20.6714286,26.4132379 L20.6714286,24.6028623 C20.6,24.2880143 20.3857143,24.1091234 20.2214286,24.0161002 L18.0357143,24.0161002 C17.8785714,24.0161002 17.75,23.9373882 17.75,23.8443649 C17.75,23.8014311 17.7714286,23.765653 17.8071429,23.7370304 L22.15,19.0858676 C22.2642857,18.9713775 22.45,18.9713775 22.5642857,19.0858676 L26.9428571,23.7370304 Z M20.75,27.75 L24.25,27.75 L24.25,27.974359 C24.25,28.2628205 23.9779412,28.5 23.6470588,28.5 L21.3529412,28.5 C21.0220588,28.5 20.75,28.2628205 20.75,27.974359 L20.75,27.75 Z M28.491904,27.25 C28.760469,27.25 28.9782245,27.4391164 29,27.6772629 L29,28.9310345 C29,29.7925647 28.26689,30.5 27.3740927,30.5 L17.6259073,30.5 C16.7258515,30.5 16,29.799569 16,28.9310345 L16,27.6842672 C16.0072585,27.4391164 16.225014,27.25 16.5008375,27.25 C16.718593,27.25 16.9073143,27.3690733 16.972641,27.544181 L16.9944165,27.544181 L16.9944165,27.6842672 L16.9944165,29.0921336 C16.9944165,29.4073276 17.2629816,29.6664871 17.5896147,29.6664871 L27.3886097,29.6664871 C27.7152429,29.6664871 27.9838079,29.4073276 27.9838079,29.0921336 L27.9838079,27.544181 L28.0201005,27.544181 C28.0926857,27.3690733 28.281407,27.25 28.491904,27.25 Z" id="Combined-Shape"></path>
        </g>
    </g>
</svg>