<?xml version="1.0" encoding="UTF-8"?>
<svg width="18px" height="18px" viewBox="0 0 18 18" version="1.1" xmlns="http://www.w3.org/2000/svg" xmlns:xlink="http://www.w3.org/1999/xlink">
    <!-- Generator: Sketch 50.2 (55047) - http://www.bohemiancoding.com/sketch -->
    <title>右上角退出</title>
    <desc>Created with Sketch.</desc>
    <defs></defs>
    <g id="Page-1" stroke="none" stroke-width="1" fill="none" fill-rule="evenodd">
        <g id="即时用车订单" transform="translate(-1844.000000, -21.000000)" fill="#999999" fill-rule="nonzero">
            <g id="右上角退出" transform="translate(1677.000000, 20.000000)">
                <path d="M179.574667,4.24741082 C179.309845,4.07594937 178.950197,4.14959724 178.775576,4.41657077 C178.603269,4.6835443 178.678437,5.04027618 178.946727,5.21288838 C180.760003,6.38550058 181.843574,8.37054085 181.843574,10.5235903 C181.843574,14.0103567 178.99761,16.8469505 175.500578,16.8469505 C172.003546,16.8469505 169.157582,14.0103567 169.157582,10.5235903 C169.157582,8.3716916 170.24231,6.38550058 172.056742,5.21403913 C172.325033,5.04142693 172.401357,4.6835443 172.227893,4.41657077 C172.052116,4.14844649 171.694781,4.07249712 171.427646,4.24626007 C169.28132,5.63291139 168,7.97928654 168,10.5235903 C168,14.6467204 171.364043,18 175.500578,18 C179.637114,18 183,14.6467204 183,10.5235903 C183,7.97813579 181.719837,5.63176064 179.574667,4.24741082 Z M175.500578,11.0264672 C175.819752,11.0264672 176.078791,10.7629459 176.078791,10.4361335 L176.078791,3.58918297 C176.078791,3.26352129 175.819752,3 175.500578,3 C175.181405,3 174.922365,3.26352129 174.922365,3.58918297 L174.922365,10.4361335 C174.922365,10.7629459 175.180248,11.0264672 175.500578,11.0264672 Z" id="退出"></path>
            </g>
        </g>
    </g>
</svg>