<?xml version="1.0" encoding="UTF-8"?>
<svg width="20px" height="22px" viewBox="0 0 20 22" version="1.1" xmlns="http://www.w3.org/2000/svg" xmlns:xlink="http://www.w3.org/1999/xlink">
    <!-- Generator: Sketch 50.2 (55047) - http://www.bohemiancoding.com/sketch -->
    <title>右箭头</title>
    <desc>Created with Sketch.</desc>
    <defs></defs>
    <g id="Page-1" stroke="none" stroke-width="1" fill="none" fill-rule="evenodd">
        <g id="操作日志" transform="translate(-1881.000000, -77.000000)" fill="#666666" fill-rule="nonzero">
            <path d="M1899.92885,87.6411972 L1891.48617,78.1619153 C1891.29644,77.9664662 1891.10672,77.9664662 1890.917,78.0641908 C1890.72727,78.1619153 1890.53755,78.3573645 1890.53755,78.5528136 L1890.53755,86.6639516 L1882.94862,78.2596399 C1882.75889,78.0641908 1882.56917,77.9664662 1882.37945,78.0641908 C1882.09486,78.1619153 1882,78.3573645 1882,78.5528136 L1882,97.5113772 C1882,97.7068263 1882.09486,97.9022754 1882.37945,98 C1882.47431,98 1882.47431,98 1882.56917,98 C1882.75889,98 1882.85375,97.9022754 1882.94862,97.8045509 L1890.53755,89.4002392 L1890.53755,97.5113772 C1890.53755,97.7068263 1890.63241,97.9022754 1890.917,98 C1891.01186,98 1891.01186,98 1891.10672,98 C1891.29644,98 1891.3913,97.9022754 1891.48617,97.8045509 L1899.92885,88.3252691 C1900.02372,88.2275445 1900.02372,87.8366463 1899.92885,87.6411972 Z M1883.04348,96.1432335 L1883.04348,79.9209573 L1890.25296,88.0320954 L1883.04348,96.1432335 Z M1891.58103,96.1432335 L1891.58103,88.0320954 C1891.58103,88.0320954 1891.58103,88.0320954 1891.58103,88.0320954 L1891.58103,79.9209573 L1898.79051,88.0320954 L1891.58103,96.1432335 Z" id="Shape" transform="translate(1891.000000, 88.000000) rotate(-360.000000) translate(-1891.000000, -88.000000) "></path>
        </g>
    </g>
</svg>