<?xml version="1.0" encoding="UTF-8"?>
<svg width="16px" height="16px" viewBox="0 0 16 16" version="1.1" xmlns="http://www.w3.org/2000/svg" xmlns:xlink="http://www.w3.org/1999/xlink">
    <!-- Generator: Sketch 50.2 (55047) - http://www.bohemiancoding.com/sketch -->
    <title>123</title>
    <desc>Created with Sketch.</desc>
    <defs></defs>
    <g id="Page-1" stroke="none" stroke-width="1" fill="none" fill-rule="evenodd">
        <g id="Artboard-2" transform="translate(-52.000000, -122.000000)" fill="#999999" fill-rule="nonzero">
            <path d="M65.3783333,123 L54.6216667,123 C53.7260449,123 53,123.726045 53,124.621667 L53,135.39 C53.0064107,136.281062 53.7305813,137.000023 54.6216667,137 L65.39,137 C66.2810623,136.993589 67.0000231,136.269419 67,135.378333 L67,124.621667 C67,123.726045 66.2739551,123 65.3783333,123 Z M65.915,135.378333 C65.915,135.520666 65.8584585,135.657169 65.757814,135.757814 C65.6571694,135.858458 65.5206662,135.915 65.3783333,135.915 L54.6216667,135.915 C54.4793338,135.915 54.3428306,135.858458 54.242186,135.757814 C54.1415415,135.657169 54.085,135.520666 54.085,135.378333 L54.085,124.621667 C54.085,124.325274 54.3252739,124.085 54.6216667,124.085 L65.39,124.085 C65.6863928,124.085 65.9266667,124.325274 65.9266667,124.621667 L65.915,135.378333 Z" id="Shape"></path>
        </g>
    </g>
</svg>