<?xml version="1.0" encoding="UTF-8"?>
<svg width="18px" height="18px" viewBox="0 0 18 18" version="1.1" xmlns="http://www.w3.org/2000/svg" xmlns:xlink="http://www.w3.org/1999/xlink">
    <!-- Generator: Sketch 50.2 (55047) - http://www.bohemiancoding.com/sketch -->
    <title>即时用车订单</title>
    <desc>Created with Sketch.</desc>
    <defs></defs>
    <g id="Page-1" stroke="none" stroke-width="1" fill="none" fill-rule="evenodd">
        <g id="即时用车订单" transform="translate(-24.000000, -293.000000)" fill="#FFFFFF">
            <g id="左侧导航">
                <path d="M27.2519666,304.064196 C27.3492494,303.901182 27.5070054,303.792067 27.6739638,303.751314 L27.6818516,303.739482 C27.8580125,303.698728 28.0407465,303.718448 28.1985024,303.813101 C28.3654608,303.910384 28.4798339,304.056308 28.5205876,304.235098 C28.5731729,304.409945 28.5481949,304.588735 28.4548559,304.763581 C28.3536292,304.925281 28.2077049,305.031766 28.0407465,305.080408 L28.0157684,305.084352 C27.8580125,305.129049 27.666076,305.105386 27.5070054,305.015991 L27.4991176,305.006788 C27.3361031,304.909505 27.2309324,304.763581 27.1914935,304.588735 C27.1415374,304.42572 27.1678301,304.235098 27.2519666,304.064196 Z M31.5402999,299.781121 C31.6375827,299.618107 31.7874509,299.505048 31.9622971,299.46298 C32.1292555,299.413024 32.3198773,299.439317 32.4855211,299.528712 C32.6485356,299.618107 32.7550209,299.781121 32.8115501,299.944136 C32.8523038,300.125555 32.8352135,300.317492 32.7339868,300.479192 C32.6406478,300.642206 32.4947236,300.751321 32.3198773,300.797333 C32.1542336,300.845974 31.9544093,300.830199 31.7913948,300.731601 C31.6283803,300.642206 31.5192658,300.479192 31.4666804,300.317492 C31.4219829,300.138702 31.443017,299.944136 31.5402999,299.781121 Z M34.2839393,302.568144 L34.306288,302.528705 C34.399627,302.373578 34.5600122,302.268407 34.7177682,302.219766 L34.7295999,302.219766 C34.8952437,302.179012 35.091124,302.198732 35.2409922,302.292071 L35.2541385,302.301273 C35.417153,302.393297 35.5223237,302.54448 35.5630773,302.712753 C35.6156626,302.883656 35.5919992,303.072963 35.4973457,303.233348 C35.4079506,303.397677 35.2501946,303.515994 35.0832362,303.560692 L35.0622021,303.568579 C34.9044461,303.601445 34.7295999,303.589614 34.5705293,303.508106 L34.542922,303.479184 C34.385166,303.385845 34.2747368,303.233348 34.2339832,303.069019 C34.1840271,302.909948 34.2090052,302.727214 34.2839393,302.568144 Z M38.2370411,299.062017 C38.2002314,298.896373 38.2133777,298.717583 38.2935704,298.565086 L38.3185484,298.521703 C38.4197751,298.366576 38.5630702,298.260091 38.72477,298.212764 C38.8943577,298.17201 39.0784063,298.187786 39.2282745,298.269293 L39.2703428,298.292957 C39.4280988,298.391554 39.5385279,298.529591 39.574023,298.708381 C39.6266084,298.862193 39.6095181,299.048871 39.5293255,299.203997 L39.5004036,299.242122 C39.4031207,299.394619 39.2532526,299.505048 39.0941819,299.557634 C38.9245943,299.591814 38.753692,299.577353 38.5867335,299.495846 L38.5459799,299.472183 C38.3882239,299.3749 38.2817387,299.232919 38.2370411,299.063332 L38.2370411,299.062017 Z M27.1020984,305.653588 L27.1218179,305.673307 C27.4675664,305.869187 27.8580125,305.917829 28.2103341,305.82449 L28.2313683,305.816602 C28.5889485,305.725892 28.9149775,305.487944 29.1134871,305.134308 C29.3159406,304.78593 29.3580089,304.396798 29.2554675,304.040533 L29.2318041,303.934048 L31.6612461,301.504605 C31.941263,301.605832 32.2383701,301.61372 32.5104992,301.536157 L32.6117259,301.504605 L33.5267106,302.414332 C33.4294277,302.698292 33.4162814,302.991456 33.4872716,303.267529 C33.5950715,303.625109 33.8238177,303.951138 34.1735101,304.145703 C34.5218879,304.349472 34.9044461,304.388911 35.2580824,304.30083 L35.2817458,304.30083 C35.6406407,304.202233 35.9574673,303.966913 36.1638647,303.617221 C36.3558011,303.267529 36.4004986,302.869195 36.3032158,302.515558 L36.2742938,302.414332 L38.4368654,300.257019 C38.7129383,300.349043 39.0087308,300.358245 39.2848037,300.285941 C39.6436986,300.195231 39.968413,299.963855 40.1669226,299.606275 C40.3667468,299.260527 40.4114444,298.862193 40.3141615,298.504613 C40.2116201,298.150976 39.9855032,297.826262 39.6344962,297.626438 L39.6344962,297.623808 C39.2848037,297.423984 38.8943577,297.383231 38.5380921,297.484457 C38.1699948,297.573852 37.8479097,297.805228 37.6480855,298.15492 C37.4535198,298.504613 37.4088222,298.910834 37.5021612,299.260527 L37.5337124,299.35781 L35.3763994,301.520381 C35.1003264,301.419154 34.8071633,301.413896 34.542922,301.487515 L34.5218879,301.487515 L34.424605,301.520381 L33.510935,300.601452 C33.6082178,300.32538 33.6161056,300.024329 33.5345984,299.756143 C33.4504619,299.394619 33.209884,299.067276 32.8615062,298.870081 C32.5157577,298.675515 32.1161092,298.626874 31.7598436,298.725471 C31.4009488,298.821439 31.0762344,299.056759 30.8816687,299.407766 C30.6765859,299.756143 30.6371469,300.146589 30.7344298,300.50417 L30.7633517,300.610655 L28.3286511,303.040097 C28.0565221,302.942814 27.7646735,302.934926 27.4991176,302.999343 L27.4754542,303.01249 C27.1139301,303.113716 26.8010474,303.345092 26.5933354,303.681638 C26.3948258,304.032645 26.3527575,304.429664 26.451355,304.78593 C26.54075,305.134308 26.7681816,305.453763 27.1020984,305.653588 Z M40.6270442,308.234213 L25.7559141,308.234213 L25.7559141,295.463866 C25.7559141,295.250896 25.5889556,295.074735 25.3786143,295.074735 C25.1643291,295.074735 25,295.250896 25,295.463866 L25,308.610198 C25,308.819224 25.1643291,308.99407 25.3786143,308.99407 L40.6270442,308.99407 C40.8334416,308.99407 41.0004,308.819224 41.0004,308.610198 C41.0004,308.405115 40.8334416,308.234213 40.6270442,308.234213 Z" id="数据统计-copy"></path>
            </g>
        </g>
    </g>
</svg>