<?xml version="1.0" encoding="UTF-8"?>
<svg width="16px" height="16px" viewBox="0 0 16 16" version="1.1" xmlns="http://www.w3.org/2000/svg" xmlns:xlink="http://www.w3.org/1999/xlink">
    <!-- Generator: Sketch 50.2 (55047) - http://www.bohemiancoding.com/sketch -->
    <title>123</title>
    <desc>Created with Sketch.</desc>
    <defs></defs>
    <g id="Page-1" stroke="none" stroke-width="1" fill="none" fill-rule="evenodd">
        <g id="Artboard-2" transform="translate(-82.000000, -90.000000)" fill="#0B74B9">
            <path d="M93.6202067,96.4995821 L89.3102701,100.859548 C89.307936,100.860716 89.3067689,100.860716 89.3056019,100.863051 C89.3044348,100.864219 89.3032678,100.866554 89.3021007,100.867721 C89.2682561,100.901583 89.225075,100.921433 89.1853951,100.944786 C89.1655552,100.954127 89.1492164,100.971641 89.1282094,100.980982 C89.0640213,101.005503 88.9951651,101.019515 88.9274758,101.019515 C88.8574525,101.019515 88.7874291,101.005503 88.7232411,100.979815 C88.701067,100.970474 88.6847282,100.951792 88.6637212,100.941283 C88.6240413,100.91793 88.5820273,100.89808 88.5481827,100.864219 C88.5470157,100.863051 88.5458486,100.860716 88.5446816,100.859548 C88.5435145,100.85838 88.5423474,100.85838 88.5411804,100.856045 L86.4206402,98.6760621 C86.2129043,98.4647194 86.2187396,98.122601 86.4323108,97.9147611 C86.6435478,97.708089 86.9843281,97.7115919 87.1932311,97.9264375 L88.9298099,99.7117583 L92.8557853,95.7429517 C93.0635212,95.5304413 93.4054685,95.528106 93.6167056,95.7382811 C93.8279426,95.9472886 93.8302768,96.2882393 93.6202067,96.4995821 M95.3847949,91 L84.6152051,91 C83.7247416,91 83,91.7239365 83,92.6160131 L83,103.388655 C83,104.280732 83.7247416,105.004668 84.6152051,105.004668 L95.3847949,105.004668 C96.2740914,105.004668 97,104.280732 97,103.388655 L97,92.6160131 C97,91.7239365 96.2740914,91 95.3847949,91" id="选中"></path>
        </g>
    </g>
</svg>