<?xml version="1.0" encoding="UTF-8"?>
<svg width="18px" height="18px" viewBox="0 0 18 18" version="1.1" xmlns="http://www.w3.org/2000/svg" xmlns:xlink="http://www.w3.org/1999/xlink">
    <!-- Generator: Sketch 50.2 (55047) - http://www.bohemiancoding.com/sketch -->
    <title>右上角退出</title>
    <desc>Created with Sketch.</desc>
    <defs></defs>
    <g id="Page-1" stroke="none" stroke-width="1" fill="none" fill-rule="evenodd">
        <g id="即时用车订单" transform="translate(-1676.000000, -21.000000)" fill="#999999">
            <g id="右上角退出" transform="translate(1676.000000, 20.000000)">
                <path d="M8.59385509,7.04486285 C9.61931207,7.04486285 10.4487372,7.87428794 10.4487372,8.89974492 C10.4487372,9.92520189 9.61931207,10.754627 8.59385509,10.754627 C7.56839811,10.754627 6.73897303,9.92520189 6.73897303,8.89974492 C6.73897303,7.87428794 7.56839811,7.04486285 8.59385509,7.04486285 M12.3387934,13.9030622 C12.0305472,12.7234392 11.2011221,11.8002448 10.1404052,11.3293393 C10.9446936,10.8166537 11.4741941,9.91851021 11.4741941,8.90146073 C11.4741941,7.31124317 10.1823568,6.01940587 8.59213928,6.01940587 C7.0020075,6.01940587 5.71017021,7.31124317 5.71017021,8.90146073 C5.71017021,9.92691771 6.23967079,10.8250612 7.04395919,11.3293393 C5.9749205,11.7918373 5.14549541,12.7234392 4.83716341,13.9030622 C4.76844501,14.1762199 4.93101851,14.4594153 5.2040905,14.5281337 C5.24767221,14.5364554 5.2895381,14.5448628 5.33311981,14.5448628 C5.56432591,14.5448628 5.7687653,14.3906968 5.82907621,14.1594907 C6.15422319,12.9027419 7.29189449,12.0297351 8.58210176,12.0297351 C9.87230903,12.0297351 11.013412,12.9027419 11.3384732,14.1594907 C11.4071916,14.4325627 11.688671,14.5951362 11.9634589,14.5264178 C12.2450241,14.4594153 12.4159193,14.1762199 12.3387934,13.9030622 M8.5,16.939283 C4.94268605,16.939283 2.06071698,14.0572282 2.06071698,10.4999142 C2.06071698,6.94268605 4.94268605,4.06063119 8.5,4.06063119 C12.0573139,4.06063119 14.9393688,6.94268605 14.9393688,10.4999142 C14.9393688,14.0572282 12.0573139,16.939283 8.5,16.939283 M8.5,3 C4.36968955,3 1,6.35115875 1,10.4999142 C1,14.6303104 4.35124454,17.9999142 8.5,17.9999142 C12.6303962,17.9999142 16,14.6487555 16,10.4999142 C16,6.36960376 12.6471254,3 8.5,3" id="用户名"></path>
            </g>
        </g>
    </g>
</svg>